HIERARCHY
ROOT Hips
{
  OFFSET -24.5077 92.419 -73.7383
  CHANNELS 6 Xposition Yposition Zposition Zrotation Xrotation Yrotation
  JOINT LeftUpLeg
  {
    OFFSET 9.63379 -0.250344 0
    CHANNELS 6 Xposition Yposition Zposition Zrotation Xrotation Yrotation
    JOINT LeftLeg
    {
      OFFSET 0 -40.4779 -1.71313
      CHANNELS 6 Xposition Yposition Zposition Zrotation Xrotation Yrotation
      JOINT LeftFoot
      {
        OFFSET 0.0126047 -40.4416 -0.864524
        CHANNELS 6 Xposition Yposition Zposition Zrotation Xrotation Yrotation
        JOINT LeftToeBase
        {
          OFFSET -0.183287 -12.1867 8.28226
          CHANNELS 6 Xposition Yposition Zposition Zrotation Xrotation Yrotation
          End Site
          {
            OFFSET 0 0 9.15615
          }
        }
      }
    }
  }
  JOINT RightUpLeg
  {
    OFFSET -9.63379 -0.250344 0
    CHANNELS 6 Xposition Yposition Zposition Zrotation Xrotation Yrotation
    JOINT RightLeg
    {
      OFFSET 0 -40.478 -1.71313
      CHANNELS 6 Xposition Yposition Zposition Zrotation Xrotation Yrotation
      JOINT RightFoot
      {
        OFFSET -0.0126047 -40.4414 -0.864524
        CHANNELS 6 Xposition Yposition Zposition Zrotation Xrotation Yrotation
        JOINT RightToeBase
        {
          OFFSET 0.183287 -12.1867 8.28226
          CHANNELS 6 Xposition Yposition Zposition Zrotation Xrotation Yrotation
          End Site
          {
            OFFSET 0.00319481 0 9.156
          }
        }
      }
    }
  }
  JOINT Spine
  {
    OFFSET 0 5.60909 -1.89659
    CHANNELS 6 Xposition Yposition Zposition Zrotation Xrotation Yrotation
    JOINT Spine1
    {
      OFFSET 0 6.56349 1.09934
      CHANNELS 6 Xposition Yposition Zposition Zrotation Xrotation Yrotation
      JOINT Spine2
      {
        OFFSET 0 7.57662 1.04304
        CHANNELS 6 Xposition Yposition Zposition Zrotation Xrotation Yrotation
        JOINT Spine3
        {
          OFFSET 0 8.29213 0.399731
          CHANNELS 6 Xposition Yposition Zposition Zrotation Xrotation Yrotation
          JOINT Spine4
          {
            OFFSET 0 8.9581 -0.526302
            CHANNELS 6 Xposition Yposition Zposition Zrotation Xrotation Yrotation
            JOINT Neck
            {
              OFFSET 0 18.4163 -4.35419
              CHANNELS 6 Xposition Yposition Zposition Zrotation Xrotation Yrotation
              JOINT Head
              {
                OFFSET 0 8.97127 1.78542
                CHANNELS 6 Xposition Yposition Zposition Zrotation Xrotation Yrotation
                End Site
                {
                  OFFSET 0 19.3737 0.971395
                }
              }
            }
            JOINT LeftShoulder
            {
              OFFSET 6.14423 15.3316 -3.79324
              CHANNELS 6 Xposition Yposition Zposition Zrotation Xrotation Yrotation
              JOINT LeftArm
              {
                OFFSET 9.01906 -1.11411 -1.79347
                CHANNELS 6 Xposition Yposition Zposition Zrotation Xrotation Yrotation
                JOINT LeftForeArm
                {
                  OFFSET 27.687 0 0
                  CHANNELS 6 Xposition Yposition Zposition Zrotation Xrotation Yrotation
                  JOINT LeftHand
                  {
                    OFFSET 27.8738 0 0
                    CHANNELS 6 Xposition Yposition Zposition Zrotation Xrotation Yrotation
                    End Site
                    {
                      OFFSET 5 0 0
                    }
                  }
                }
              }
            }
            JOINT RightShoulder
            {
              OFFSET -6.14423 15.3316 -3.79324
              CHANNELS 6 Xposition Yposition Zposition Zrotation Xrotation Yrotation
              JOINT RightArm
              {
                OFFSET -9.01884 -1.11411 -1.79347
                CHANNELS 6 Xposition Yposition Zposition Zrotation Xrotation Yrotation
                JOINT RightForeArm
                {
                  OFFSET -27.0381 0.00109999 0
                  CHANNELS 6 Xposition Yposition Zposition Zrotation Xrotation Yrotation
                  JOINT RightHand
                  {
                    OFFSET -28.5227 0 0
                    CHANNELS 6 Xposition Yposition Zposition Zrotation Xrotation Yrotation
                    End Site
                    {
                      OFFSET -5 0 0
                    }
                  }
                }
              }
            }
          }
        }
      }
    }
  }
}
MOTION
Frames:	4
Frame Time:	0.00833333
-27.4908 91.9448 -101.821 1.32197 1.91591 5.48497 9.63379 -0.250344 -7.15256e-007 1.04952 -2.71146 9.22982 0 -40.4779 -1.71313 1.16767 3.58284 -0.0598622 0.0126047 -40.4416 -0.864524 0.128648 -0.721796 -0.0021532 -0.183287 -12.1867 8.28226 1.11875e-011 -6.27086e-012 6.25742e-011 -9.63379 -0.250344 -7.15256e-007 -2.23957 -3.02283 2.5828 0 -40.478 -1.71313 0.822302 4.14254 -1.08735 -0.0126047 -40.4414 -0.864524 -0.0510958 -2.4412 -0.00027907 0.183287 -12.1867 8.28226 -7.42043e-012 4.50859e-012 3.68865e-011 -2.64698e-023 5.60909 -1.89659 0.0500195 -0.0788977 -0.227588 0 6.56349 1.09934 -0.0993755 -0.138076 -0.477005 0 7.57662 1.04304 -0.10783 -0.138049 -0.473413 0 8.29213 0.399731 -0.106879 -0.138022 -0.473171 0 8.9581 -0.526302 -0.106662 -0.137995 -0.473267 0 18.4163 -4.35419 -3.42572 25.9928 0.871761 1.05879e-022 8.97127 1.78542 1.79961 -10.1222 -1.13531 6.14423 15.3316 -3.79324 -21.8766 1.46135 -1.66876 9.01906 -1.11411 -1.79347 -57.9591 15.7422 -6.70223 27.687 0 0 -3.65875 25.5251 -14.9562 27.8738 0 0 11.5656 -0.275657 4.13644 -6.14423 15.3316 -3.79324 25.1001 7.41153 19.8799 -9.01884 -1.11411 -1.79347 60.8638 18.014 -1.56286 -27.0381 0.00109999 5.96046e-008 -8.75313 5.78635 2.58084 -28.5227 0 0 -5.00607 -2.48698 -8.45051 
-27.4913 91.9453 -101.817 1.31979 1.90733 5.48562 9.63379 -0.250344 -7.15256e-007 1.05535 -2.71329 9.23482 0 -40.4779 -1.71313 1.16766 3.60766 -0.0598412 0.0126047 -40.4416 -0.864524 0.128648 -0.732401 -0.00215321 -0.183287 -12.1867 8.28226 1.11875e-011 -6.27086e-012 6.25742e-011 -9.63379 -0.250344 -7.15256e-007 -2.23488 -3.00392 2.58893 0 -40.478 -1.71313 0.82107 4.12476 -1.08661 -0.0126047 -40.4414 -0.864524 -0.0510989 -2.43642 -0.000279069 0.183287 -12.1867 8.28226 -7.42043e-012 4.50859e-012 3.68865e-011 -2.64698e-023 5.60909 -1.89659 0.0500914 -0.079018 -0.227633 0 6.56349 1.09934 -0.0994372 -0.137601 -0.477434 0 7.57662 1.04304 -0.10791 -0.137577 -0.474923 0 8.29213 0.399731 -0.107007 -0.137553 -0.474549 0 8.9581 -0.526302 -0.106707 -0.13753 -0.474336 0 18.4163 -4.35419 -3.43869 26.0196 0.879763 1.05879e-022 8.97127 1.78542 1.79806 -10.1362 -1.13401 6.14423 15.3316 -3.79324 -21.8938 1.46337 -1.67296 9.01906 -1.11411 -1.79347 -57.956 15.7339 -6.68203 27.687 0 0 -3.64034 25.544 -14.9764 27.8738 0 0 11.5164 -0.280578 4.17424 -6.14423 15.3316 -3.79324 25.0982 7.40859 19.8722 -9.01884 -1.11411 -1.79347 60.8526 17.9886 -1.56745 -27.0381 0.00109999 5.96046e-008 -8.75273 5.82139 2.59668 -28.5227 0 0 -4.95184 -2.49557 -8.51541 
-27.4918 91.9458 -101.812 1.31734 1.89845 5.48724 9.63379 -0.250344 -7.15256e-007 1.06183 -2.71608 9.24016 0 -40.4779 -1.71313 1.16762 3.63485 -0.0598187 0.0126047 -40.4416 -0.864524 0.128647 -0.74372 -0.00215321 -0.183287 -12.1867 8.28226 1.11875e-011 -6.27086e-012 6.25742e-011 -9.63379 -0.250344 -7.15256e-007 -2.23033 -2.98452 2.59236 0 -40.478 -1.71313 0.819886 4.1069 -1.08591 -0.0126047 -40.4414 -0.864524 -0.0511046 -2.43151 -0.000279068 0.183287 -12.1867 8.28226 -7.42043e-012 4.50859e-012 3.68865e-011 -2.64698e-023 5.60909 -1.89659 0.0501608 -0.0791377 -0.227678 0 6.56349 1.09934 -0.0995 -0.137281 -0.47787 0 7.57662 1.04304 -0.107993 -0.137258 -0.476803 0 8.29213 0.399731 -0.107138 -0.137237 -0.476325 0 8.9581 -0.526302 -0.106753 -0.137218 -0.47587 0 18.4163 -4.35419 -3.45307 26.0477 0.888479 1.05879e-022 8.97127 1.78542 1.79862 -10.1508 -1.13303 6.14423 15.3316 -3.79324 -21.9093 1.46507 -1.67629 9.01906 -1.11411 -1.79347 -57.9547 15.725 -6.66098 27.687 0 0 -3.61496 25.5865 -15.0002 27.8738 0 0 11.4602 -0.286175 4.21709 -6.14423 15.3316 -3.79324 25.0952 7.40687 19.869 -9.01884 -1.11411 -1.79347 60.844 17.963 -1.57492 -27.0381 0.00109999 5.96046e-008 -8.75421 5.85357 2.61213 -28.5227 0 0 -4.89823 -2.50446 -8.5809 
-27.4922 91.9458 -101.808 1.3167 1.89188 5.48719 9.63379 -0.250344 -7.15256e-007 1.0651 -2.71464 9.2434 0 -40.4779 -1.71313 1.16753 3.65048 -0.0597937 0.0126047 -40.4416 -0.864524 0.128647 -0.750566 -0.00215321 -0.183287 -12.1867 8.28226 1.11875e-011 -6.27086e-012 6.25742e-011 -9.63379 -0.250344 -7.15256e-007 -2.22834 -2.9708 2.59311 0 -40.478 -1.71313 0.818924 4.09704 -1.08529 -0.0126047 -40.4414 -0.864524 -0.051113 -2.4294 -0.000279067 0.183287 -12.1867 8.28226 -7.42043e-012 4.50859e-012 3.68865e-011 -2.64698e-023 5.60909 -1.89659 0.0502281 -0.0792566 -0.227725 0 6.56349 1.09934 -0.0995631 -0.136988 -0.478312 0 7.57662 1.04304 -0.108075 -0.136966 -0.478356 0 8.29213 0.399731 -0.107268 -0.136946 -0.477824 0 8.9581 -0.526302 -0.106801 -0.13693 -0.477624 0 18.4163 -4.35419 -3.46153 26.0669 0.894923 1.05879e-022 8.97127 1.78542 1.79999 -10.162 -1.13123 6.14423 15.3316 -3.79324 -21.9152 1.46593 -1.6783 9.01906 -1.11411 -1.79347 -57.9577 15.721 -6.64589 27.687 0 0 -3.59647 25.6199 -15.0186 27.8738 0 0 11.4205 -0.29041 4.25102 -6.14423 15.3316 -3.79324 25.0913 7.40759 19.8739 -9.01884 -1.11411 -1.79347 60.8414 17.9436 -1.58262 -27.0381 0.00109999 5.96046e-008 -8.75696 5.87581 2.62216 -28.5227 0 0 -4.87259 -2.51064 -8.61865 
